# xmcd
#
# Track frame offsets:
#	150
#	16354
#	43744
#	74252
#	91038
#	118786
#	132577
#	158373
#	175775
#	191190
#	209879
#	225980
#	243315
#	258311
#	274480
#	294306
#	313060
#
# Disc length: 4392
#
# Revision: 1
# Processed by: cddbd v1.5.2PL0 Copyright (c) Steve Scherf et al.
# Submitted via: kJams 2 (development) 2.0patch10
#
DISCID=f7112611
DTITLE=Various Artist - Top Tunes – Leonard Coen and Enya TT110
DYEAR=2002
DGENRE=Karaoke
TTITLE0=Leonard Cohen - Bird On A Wire
TTITLE1=Leonard Cohen - Everybody Knows
TTITLE2=Leonard Cohen - Hallelujah
TTITLE3=Leonard Cohen - It Seems So Long Ago Nancy
TTITLE4=Leonard Cohen - Joan Of Arc [Duet]
TTITLE5=Leonard Cohen - Lady Midnight
TTITLE6=Leonard Cohen - So Long Marianne
TTITLE7=Leonard Cohen - Suzanne
TTITLE8=Leonard Cohen - The Partisan
TTITLE9=Enya - Anywhere Is
TTITLE10=Enya - Marble Halls
TTITLE11=Enya - May It Be
TTITLE12=Enya - Only If
TTITLE13=Enya - Only Time
TTITLE14=Enya - Orinoco Flow
TTITLE15=Enya - Paint The Sky With Stars
TTITLE16=Enya - Wild Child
EXTD=
EXTT0=
EXTT1=
EXTT2=
EXTT3=
EXTT4=
EXTT5=
EXTT6=
EXTT7=
EXTT8=
EXTT9=
EXTT10=
EXTT11=
EXTT12=
EXTT13=
EXTT14=
EXTT15=
EXTT16=
PLAYORDER=
